<mxfile host="app.diagrams.net" agent="Mozilla/5.0 (Windows NT 10.0; Win64; x64) AppleWebKit/537.36 (KHTML, like Gecko) Chrome/134.0.0.0 Safari/537.36" version="25.0.3">
  <diagram name="Page-1" id="_OLkhmM4s6mW7evZHlKa">
    <mxGraphModel dx="1853" dy="1777" grid="1" gridSize="10" guides="1" tooltips="1" connect="1" arrows="1" fold="1" page="1" pageScale="1" pageWidth="600" pageHeight="600" math="0" shadow="0">
      <root>
        <mxCell id="0" />
        <mxCell id="1" parent="0" />
        <mxCell id="mi6UNXiNvELgKaCgD5Zx-1" style="rounded=0;orthogonalLoop=1;jettySize=auto;html=1;entryX=1;entryY=0.5;entryDx=0;entryDy=0;endArrow=none;endFill=0;" edge="1" parent="1" source="mi6UNXiNvELgKaCgD5Zx-2" target="mi6UNXiNvELgKaCgD5Zx-27">
          <mxGeometry relative="1" as="geometry" />
        </mxCell>
        <mxCell id="mi6UNXiNvELgKaCgD5Zx-2" value="Технический специалист" style="shape=umlActor;verticalLabelPosition=bottom;verticalAlign=top;html=1;outlineConnect=0;" vertex="1" parent="1">
          <mxGeometry x="480" y="360" width="30" height="60" as="geometry" />
        </mxCell>
        <mxCell id="mi6UNXiNvELgKaCgD5Zx-3" style="rounded=0;orthogonalLoop=1;jettySize=auto;html=1;entryX=1;entryY=0.5;entryDx=0;entryDy=0;endArrow=none;endFill=0;" edge="1" parent="1" source="mi6UNXiNvELgKaCgD5Zx-5" target="mi6UNXiNvELgKaCgD5Zx-26">
          <mxGeometry relative="1" as="geometry" />
        </mxCell>
        <mxCell id="mi6UNXiNvELgKaCgD5Zx-4" style="rounded=0;orthogonalLoop=1;jettySize=auto;html=1;entryX=1;entryY=0.5;entryDx=0;entryDy=0;endArrow=none;endFill=0;" edge="1" parent="1" source="mi6UNXiNvELgKaCgD5Zx-5" target="mi6UNXiNvELgKaCgD5Zx-32">
          <mxGeometry relative="1" as="geometry" />
        </mxCell>
        <mxCell id="mi6UNXiNvELgKaCgD5Zx-5" value="Техническая поддержка&lt;span style=&quot;font-size: medium; text-align: start;&quot;&gt;&lt;/span&gt;" style="shape=umlActor;verticalLabelPosition=bottom;verticalAlign=top;html=1;outlineConnect=0;" vertex="1" parent="1">
          <mxGeometry x="480" y="240" width="30" height="60" as="geometry" />
        </mxCell>
        <mxCell id="mi6UNXiNvELgKaCgD5Zx-6" style="rounded=0;orthogonalLoop=1;jettySize=auto;html=1;entryX=1;entryY=0.5;entryDx=0;entryDy=0;endArrow=none;endFill=0;" edge="1" parent="1" source="mi6UNXiNvELgKaCgD5Zx-9" target="mi6UNXiNvELgKaCgD5Zx-28">
          <mxGeometry relative="1" as="geometry" />
        </mxCell>
        <mxCell id="mi6UNXiNvELgKaCgD5Zx-7" style="rounded=0;orthogonalLoop=1;jettySize=auto;html=1;entryX=1;entryY=0.5;entryDx=0;entryDy=0;endArrow=none;endFill=0;" edge="1" parent="1" source="mi6UNXiNvELgKaCgD5Zx-9" target="mi6UNXiNvELgKaCgD5Zx-29">
          <mxGeometry relative="1" as="geometry" />
        </mxCell>
        <mxCell id="mi6UNXiNvELgKaCgD5Zx-8" style="rounded=0;orthogonalLoop=1;jettySize=auto;html=1;entryX=1;entryY=0.5;entryDx=0;entryDy=0;endArrow=none;endFill=0;" edge="1" parent="1" source="mi6UNXiNvELgKaCgD5Zx-9" target="mi6UNXiNvELgKaCgD5Zx-30">
          <mxGeometry relative="1" as="geometry" />
        </mxCell>
        <mxCell id="mi6UNXiNvELgKaCgD5Zx-9" value="Администратор системы&lt;span style=&quot;font-size: medium; text-align: start;&quot;&gt;&lt;/span&gt;" style="shape=umlActor;verticalLabelPosition=bottom;verticalAlign=top;html=1;outlineConnect=0;" vertex="1" parent="1">
          <mxGeometry x="880" y="200" width="30" height="60" as="geometry" />
        </mxCell>
        <mxCell id="mi6UNXiNvELgKaCgD5Zx-10" style="rounded=0;orthogonalLoop=1;jettySize=auto;html=1;entryX=1;entryY=0.5;entryDx=0;entryDy=0;endArrow=none;endFill=0;" edge="1" parent="1" source="mi6UNXiNvELgKaCgD5Zx-13" target="mi6UNXiNvELgKaCgD5Zx-23">
          <mxGeometry relative="1" as="geometry" />
        </mxCell>
        <mxCell id="mi6UNXiNvELgKaCgD5Zx-11" style="rounded=0;orthogonalLoop=1;jettySize=auto;html=1;entryX=1;entryY=0.5;entryDx=0;entryDy=0;endArrow=none;endFill=0;" edge="1" parent="1" source="mi6UNXiNvELgKaCgD5Zx-13" target="mi6UNXiNvELgKaCgD5Zx-24">
          <mxGeometry relative="1" as="geometry" />
        </mxCell>
        <mxCell id="mi6UNXiNvELgKaCgD5Zx-12" style="rounded=0;orthogonalLoop=1;jettySize=auto;html=1;entryX=1;entryY=0.5;entryDx=0;entryDy=0;endArrow=none;endFill=0;" edge="1" parent="1" source="mi6UNXiNvELgKaCgD5Zx-13" target="mi6UNXiNvELgKaCgD5Zx-25">
          <mxGeometry relative="1" as="geometry" />
        </mxCell>
        <mxCell id="mi6UNXiNvELgKaCgD5Zx-13" value="Преподаватель&lt;span style=&quot;font-size: medium; text-align: start;&quot;&gt;&lt;/span&gt;" style="shape=umlActor;verticalLabelPosition=bottom;verticalAlign=top;html=1;outlineConnect=0;" vertex="1" parent="1">
          <mxGeometry x="530" y="100" width="30" height="60" as="geometry" />
        </mxCell>
        <mxCell id="mi6UNXiNvELgKaCgD5Zx-14" style="rounded=0;orthogonalLoop=1;jettySize=auto;html=1;entryX=0.5;entryY=0;entryDx=0;entryDy=0;endArrow=none;endFill=0;" edge="1" parent="1" source="mi6UNXiNvELgKaCgD5Zx-18" target="mi6UNXiNvELgKaCgD5Zx-22">
          <mxGeometry relative="1" as="geometry" />
        </mxCell>
        <mxCell id="mi6UNXiNvELgKaCgD5Zx-15" style="rounded=0;orthogonalLoop=1;jettySize=auto;html=1;entryX=0;entryY=0.5;entryDx=0;entryDy=0;endArrow=none;endFill=0;" edge="1" parent="1" source="mi6UNXiNvELgKaCgD5Zx-18" target="mi6UNXiNvELgKaCgD5Zx-21">
          <mxGeometry relative="1" as="geometry" />
        </mxCell>
        <mxCell id="mi6UNXiNvELgKaCgD5Zx-16" style="rounded=0;orthogonalLoop=1;jettySize=auto;html=1;entryX=0.033;entryY=0.401;entryDx=0;entryDy=0;endArrow=none;endFill=0;entryPerimeter=0;" edge="1" parent="1" source="mi6UNXiNvELgKaCgD5Zx-18" target="mi6UNXiNvELgKaCgD5Zx-19">
          <mxGeometry relative="1" as="geometry" />
        </mxCell>
        <mxCell id="mi6UNXiNvELgKaCgD5Zx-17" style="rounded=0;orthogonalLoop=1;jettySize=auto;html=1;entryX=0.5;entryY=1;entryDx=0;entryDy=0;endArrow=none;endFill=0;" edge="1" parent="1" source="mi6UNXiNvELgKaCgD5Zx-18" target="mi6UNXiNvELgKaCgD5Zx-20">
          <mxGeometry relative="1" as="geometry" />
        </mxCell>
        <mxCell id="mi6UNXiNvELgKaCgD5Zx-18" value="Студент&lt;span style=&quot;font-size: medium; text-align: start;&quot;&gt;&lt;/span&gt;" style="shape=umlActor;verticalLabelPosition=bottom;verticalAlign=top;html=1;outlineConnect=0;" vertex="1" parent="1">
          <mxGeometry x="80" y="170" width="30" height="60" as="geometry" />
        </mxCell>
        <mxCell id="mi6UNXiNvELgKaCgD5Zx-19" value="Голосовой наставник" style="ellipse;whiteSpace=wrap;html=1;" vertex="1" parent="1">
          <mxGeometry x="155" y="200" width="135" height="60" as="geometry" />
        </mxCell>
        <mxCell id="mi6UNXiNvELgKaCgD5Zx-20" value="Просмотреть личные оценки и рейтинг" style="ellipse;whiteSpace=wrap;html=1;" vertex="1" parent="1">
          <mxGeometry x="40" y="20" width="120" height="80" as="geometry" />
        </mxCell>
        <mxCell id="mi6UNXiNvELgKaCgD5Zx-21" value="Прохождение уроков" style="ellipse;whiteSpace=wrap;html=1;" vertex="1" parent="1">
          <mxGeometry x="130" y="265" width="120" height="80" as="geometry" />
        </mxCell>
        <mxCell id="mi6UNXiNvELgKaCgD5Zx-22" value="Регистрация и вход" style="ellipse;whiteSpace=wrap;html=1;" vertex="1" parent="1">
          <mxGeometry x="-90" y="300" width="120" height="80" as="geometry" />
        </mxCell>
        <mxCell id="mi6UNXiNvELgKaCgD5Zx-23" value="&lt;meta charset=&quot;utf-8&quot;&gt;&lt;span style=&quot;color: rgb(0, 0, 0); font-family: Helvetica; font-size: 12px; font-style: normal; font-variant-ligatures: normal; font-variant-caps: normal; font-weight: 400; letter-spacing: normal; orphans: 2; text-align: left; text-indent: 0px; text-transform: none; widows: 2; word-spacing: 0px; -webkit-text-stroke-width: 0px; background-color: rgb(251, 251, 251); text-decoration-thickness: initial; text-decoration-style: initial; text-decoration-color: initial; float: none; display: inline !important;&quot;&gt;Войти в систему&lt;/span&gt;" style="ellipse;whiteSpace=wrap;html=1;" vertex="1" parent="1">
          <mxGeometry x="500" y="-70" width="120" height="40" as="geometry" />
        </mxCell>
        <mxCell id="mi6UNXiNvELgKaCgD5Zx-24" value="Ввести учебные данные" style="ellipse;whiteSpace=wrap;html=1;" vertex="1" parent="1">
          <mxGeometry x="330" y="-30" width="120" height="40" as="geometry" />
        </mxCell>
        <mxCell id="mi6UNXiNvELgKaCgD5Zx-25" value="Создание учебных материалов" style="ellipse;whiteSpace=wrap;html=1;" vertex="1" parent="1">
          <mxGeometry x="310" y="30" width="120" height="60" as="geometry" />
        </mxCell>
        <mxCell id="mi6UNXiNvELgKaCgD5Zx-26" value="Войти в систему" style="ellipse;whiteSpace=wrap;html=1;" vertex="1" parent="1">
          <mxGeometry x="280" y="295" width="120" height="50" as="geometry" />
        </mxCell>
        <mxCell id="mi6UNXiNvELgKaCgD5Zx-27" value="Решение технических проблем студентов&lt;br&gt;" style="ellipse;whiteSpace=wrap;html=1;" vertex="1" parent="1">
          <mxGeometry x="280" y="440" width="120" height="80" as="geometry" />
        </mxCell>
        <mxCell id="mi6UNXiNvELgKaCgD5Zx-28" value="Войти в систему" style="ellipse;whiteSpace=wrap;html=1;" vertex="1" parent="1">
          <mxGeometry x="640" y="80" width="120" height="80" as="geometry" />
        </mxCell>
        <mxCell id="mi6UNXiNvELgKaCgD5Zx-29" value="Управление пользователями" style="ellipse;whiteSpace=wrap;html=1;" vertex="1" parent="1">
          <mxGeometry x="640" y="200" width="120" height="80" as="geometry" />
        </mxCell>
        <mxCell id="mi6UNXiNvELgKaCgD5Zx-30" value="Мониторинг производительности системы" style="ellipse;whiteSpace=wrap;html=1;" vertex="1" parent="1">
          <mxGeometry x="640" y="320" width="120" height="80" as="geometry" />
        </mxCell>
        <mxCell id="mi6UNXiNvELgKaCgD5Zx-31" value="&amp;lt;&amp;lt;include&amp;gt;&amp;gt;" style="rounded=0;orthogonalLoop=1;jettySize=auto;html=1;dashed=1;dashPattern=1 4;exitX=1;exitY=0.5;exitDx=0;exitDy=0;entryX=0;entryY=0.5;entryDx=0;entryDy=0;" edge="1" parent="1" source="mi6UNXiNvELgKaCgD5Zx-20" target="mi6UNXiNvELgKaCgD5Zx-24">
          <mxGeometry relative="1" as="geometry">
            <mxPoint x="110" y="370" as="sourcePoint" />
            <mxPoint x="110" y="450" as="targetPoint" />
          </mxGeometry>
        </mxCell>
        <mxCell id="mi6UNXiNvELgKaCgD5Zx-32" value="Предоставление консультаций по использованию системы" style="ellipse;whiteSpace=wrap;html=1;" vertex="1" parent="1">
          <mxGeometry x="280" y="360" width="120" height="75" as="geometry" />
        </mxCell>
        <mxCell id="mi6UNXiNvELgKaCgD5Zx-34" style="rounded=0;orthogonalLoop=1;jettySize=auto;html=1;entryX=0.5;entryY=0;entryDx=0;entryDy=0;endArrow=none;endFill=0;exitX=0.5;exitY=0.5;exitDx=0;exitDy=0;exitPerimeter=0;" edge="1" parent="1" target="mi6UNXiNvELgKaCgD5Zx-35" source="mi6UNXiNvELgKaCgD5Zx-18">
          <mxGeometry relative="1" as="geometry">
            <mxPoint x="82.1875" y="270" as="sourcePoint" />
          </mxGeometry>
        </mxCell>
        <mxCell id="mi6UNXiNvELgKaCgD5Zx-35" value="Выбор курса" style="ellipse;whiteSpace=wrap;html=1;" vertex="1" parent="1">
          <mxGeometry x="35" y="345" width="120" height="80" as="geometry" />
        </mxCell>
        <mxCell id="mi6UNXiNvELgKaCgD5Zx-36" style="rounded=0;orthogonalLoop=1;jettySize=auto;html=1;entryX=1;entryY=0.5;entryDx=0;entryDy=0;endArrow=none;endFill=0;exitX=0.5;exitY=0.5;exitDx=0;exitDy=0;exitPerimeter=0;" edge="1" parent="1" target="mi6UNXiNvELgKaCgD5Zx-37">
          <mxGeometry relative="1" as="geometry">
            <mxPoint x="544.9999999999998" y="140" as="sourcePoint" />
          </mxGeometry>
        </mxCell>
        <mxCell id="mi6UNXiNvELgKaCgD5Zx-37" value="Оценка знаний" style="ellipse;whiteSpace=wrap;html=1;" vertex="1" parent="1">
          <mxGeometry x="310" y="100" width="120" height="60" as="geometry" />
        </mxCell>
        <mxCell id="mi6UNXiNvELgKaCgD5Zx-38" style="rounded=0;orthogonalLoop=1;jettySize=auto;html=1;entryX=0.938;entryY=0.738;entryDx=0;entryDy=0;endArrow=none;endFill=0;exitX=0.5;exitY=0.5;exitDx=0;exitDy=0;exitPerimeter=0;entryPerimeter=0;" edge="1" parent="1" target="mi6UNXiNvELgKaCgD5Zx-39" source="mi6UNXiNvELgKaCgD5Zx-18">
          <mxGeometry relative="1" as="geometry">
            <mxPoint x="135" y="160" as="sourcePoint" />
          </mxGeometry>
        </mxCell>
        <mxCell id="mi6UNXiNvELgKaCgD5Zx-39" value="Обратная связь" style="ellipse;whiteSpace=wrap;html=1;" vertex="1" parent="1">
          <mxGeometry x="-110" y="140" width="120" height="80" as="geometry" />
        </mxCell>
      </root>
    </mxGraphModel>
  </diagram>
</mxfile>
